<?xml version="1.0" encoding="utf-8"?>
<!-- Generator: Adobe Illustrator 22.1.0, SVG Export Plug-In . SVG Version: 6.00 Build 0)  -->
<svg version="1.1" xmlns="http://www.w3.org/2000/svg" xmlns:xlink="http://www.w3.org/1999/xlink" x="0px" y="0px"
	 viewBox="0 0 276.1 172" style="enable-background:new 0 0 276.1 172;" xml:space="preserve">
<style type="text/css">
	.st0{fill:#FFFFFF;}
	.st1{fill:#FF931E;}
	.st2{fill:none;stroke:#FFFFFF;stroke-width:8;stroke-miterlimit:10;}
	.st3{fill:none;stroke:#0000FF;stroke-width:2;stroke-miterlimit:10;}
</style>
<g id="Layer_1">
</g>
<g id="Layer_2">
	<g>
		<path class="st0" d="M111.3,149.4h-0.7c-2.8,0-5.3-1.8-6.2-4.5l-3.9-12.1c-0.9-2.7-3.3-4.5-6.2-4.5H63.7c-2.8,0-5.3,1.8-6.2,4.5
			l-3.9,12.1c-0.9,2.7-3.3,4.5-6.2,4.5h0c-4.4,0-7.5-4.3-6.1-8.5l27.8-83.6c0.9-2.6,3.4-4.4,6.1-4.4h8.7c2.8,0,5.3,1.8,6.1,4.5
			l27.4,83.6C118.8,145.1,115.7,149.4,111.3,149.4z M94.3,113.1L83,77.3c-1.2-3.8-6.6-3.8-7.9,0l-11.5,36.3c-0.5,1.5,0.6,3,2.2,3
			h25.9C93.6,116.6,94.9,114.8,94.3,113.1z"/>
		<g>
			<path class="st0" d="M141.1,93.1h-3.2c-0.6,0-1-0.5-1.1-1l-0.8-23.9l-0.1-3.7c0-1.2-1.7-1.4-2.1-0.3v0l-5.6,15.2
				c-0.2,0.4-0.6,0.7-1,0.7H125c-0.4,0-0.8-0.3-1-0.7l-5.4-14.6c0,0,0,0,0-0.1l-1.9-6.2l-0.1,10L115.9,92c0,0.6-0.5,1-1.1,1h-3
				c-0.6,0-1.1-0.5-1.1-1.1l1.9-37.9c0-0.6,0.5-1,1.1-1h4.7c0.4,0,0.9,0.3,1,0.7l5.1,14.4l0.7,2.1c0.3,1,1.7,1,2,0l0.7-2.1l5.4-14.4
				c0.2-0.4,0.6-0.7,1-0.7h4.9c0.6,0,1,0.4,1.1,1l1.8,37.9C142.2,92.6,141.7,93.1,141.1,93.1z"/>
			<path class="st0" d="M155.9,57.7h-4.6c-1.3,0-2.3-1-2.3-2.3v0c0-1.3,1-2.3,2.3-2.3h19.3c1.3,0,2.3,1,2.3,2.3v0
				c0,1.3-1,2.3-2.3,2.3H166c-1.3,0-2.3,1-2.3,2.3v26.2c0,1.3,1,2.3,2.3,2.3h4.6c1.3,0,2.3,1,2.3,2.3v0.1c0,1.3-1,2.3-2.3,2.3h-19.3
				c-1.3,0-2.3-1-2.3-2.3v-0.1c0-1.3,1-2.3,2.3-2.3h4.6c1.3,0,2.3-1,2.3-2.3V60C158.2,58.7,157.2,57.7,155.9,57.7z"/>
			<path class="st0" d="M206,93.1h-18.4c-1.3,0-2.3-1-2.3-2.3V55.4c0-1.3,1-2.3,2.3-2.3h0.9c1.3,0,2.3,1,2.3,2.3v30.7
				c0,1.3,1,2.3,2.3,2.3H206c1.3,0,2.3,1,2.3,2.3v0C208.3,92,207.3,93.1,206,93.1z"/>
		</g>
		<g>
			<path class="st0" d="M153.1,149.1L153.1,149.1c-1.5,0-2.7-1.2-2.7-2.7v-12.9c0-1.5-1.2-2.7-2.7-2.7h-11.4c-1.5,0-2.7,1.2-2.7,2.7
				v12.9c0,1.5-1.2,2.7-2.7,2.7h0c-1.5,0-2.7-1.2-2.7-2.7v-34.6c0-1.5,1.2-2.7,2.7-2.7h0c1.5,0,2.7,1.2,2.7,2.7v11.5
				c0,1.5,1.2,2.7,2.7,2.7h11.4c1.5,0,2.7-1.2,2.7-2.7v-11.5c0-1.5,1.2-2.7,2.7-2.7h0c1.5,0,2.7,1.2,2.7,2.7v34.6
				C155.8,147.9,154.6,149.1,153.1,149.1z"/>
			<path class="st0" d="M191,149.1h-3.2c-0.6,0-1-0.5-1.1-1l-0.8-23.9l-0.1-3.7c0-1.2-1.7-1.4-2.1-0.3v0l-5.6,15.2
				c-0.2,0.4-0.6,0.7-1,0.7h-2.3c-0.4,0-0.8-0.3-1-0.7l-5.4-14.6c0,0,0,0,0-0.1l-1.9-6.2l-0.1,10l-0.7,23.5c0,0.6-0.5,1-1.1,1h-3
				c-0.6,0-1.1-0.5-1.1-1.1l1.8-35.9c0.1-1.7,1.5-3,3.2-3h0.7c1.6,0,3.1,1,3.6,2.6l4.5,12.5l0.7,2.1c0.3,1,1.7,1,2,0l0.7-2.1
				l4.7-12.4c0.6-1.6,2.1-2.6,3.8-2.6h1.1c1.5,0,2.8,1.2,2.8,2.7l1.7,36.2C192.1,148.6,191.6,149.1,191,149.1z"/>
			<path class="st0" d="M220.2,149.1h-18.1c-1.3,0-2.3-1-2.3-2.3v-35.4c0-1.3,1-2.3,2.3-2.3h18.1c1.3,0,2.3,1,2.3,2.3v0
				c0,1.3-1,2.3-2.3,2.3h-12.7c-1.3,0-2.3,1-2.3,2.3v7.8c0,1.3,1,2.3,2.3,2.3h12c1.3,0,2.3,1,2.3,2.3v0c0,1.3-1,2.3-2.3,2.3h-12
				c-1.3,0-2.3,1-2.3,2.3v9.2c0,1.3,1,2.3,2.3,2.3h12.7c1.3,0,2.3,1,2.3,2.3v0.1C222.5,148.1,221.5,149.1,220.2,149.1z"/>
			<path class="st0" d="M260.3,128.6c0,1.9-0.1,3.8-0.4,5.5c-0.3,1.8-0.8,3.4-1.4,4.9c-0.7,1.5-1.5,2.9-2.5,4.1
				c-1,1.2-2.3,2.3-3.8,3.2c-1.5,0.9-3.3,1.6-5.3,2c-2,0.5-4.3,0.7-6.8,0.7h-8.6v-40h10.3c6.2,0,10.9,1.6,14,4.8
				C258.8,117.1,260.3,122,260.3,128.6z M254.6,129c0-2.8-0.3-5.2-0.8-7.2c-0.5-2-1.3-3.5-2.4-4.7c-1.1-1.2-2.4-2.1-4.1-2.6
				c-1.6-0.5-3.6-0.8-5.8-0.8h-4.7v30.7h4.1C250,144.4,254.6,139.3,254.6,129z"/>
		</g>
		<path class="st0" d="M7.6,171.3l257.4,0c6.2,0,11.3-5,11.3-11.3V19c0-4.6-3.8-8.4-8.4-8.4H45.3c-0.4,0-0.7,0-1.1,0.1c0,0,0,0,0,0
			h0c-3.4-0.1-6.2,2.7-6.2,6.1v61.1c0,6.2-1.5,10.9-4.4,14.1c-2.9,3.3-7,4.9-12.4,4.9c-3.6,0-7.3-0.6-11-1.9
			c-0.7-0.3-1.5-0.5-2.2-0.8c-3.6-1.4-7.4,0.8-7.9,4.5c-0.2,0.6-0.3,1.2-0.3,1.9l0,64.8c0,2.8,1.9,5.4,4.6,6 M252.7,159.3H16.8
			c-2.8,0-5-2.2-5-5v-43.4c0-1.8,1.6-3.2,3.4-2.9c0,0,0,0,0,0c2,0.3,4,0.4,5.9,0.4c5.1,0,9.6-0.8,13.4-2.4c3.8-1.6,6.9-3.8,9.5-6.6
			c2.5-2.8,4.4-6,5.6-9.7c1.2-3.7,1.8-7.6,1.8-11.8V28.3c0-3.2,2.6-5.7,5.7-5.7h197.8c5.2,0,9.4,4.2,9.4,9.4v115.7
			C264.3,154.1,259.1,159.3,252.7,159.3z"/>
		<g>
			<circle class="st1" cx="246.3" cy="39.1" r="9.5"/>
			<circle class="st2" cx="246.3" cy="39.1" r="9.5"/>
			<circle class="st3" cx="246.3" cy="39.1" r="9.5"/>
		</g>
	</g>
</g>
</svg>
